<?xml version="1.0" encoding="UTF-8" standalone="no"?>
<!DOCTYPE svg PUBLIC "-//W3C//DTD SVG 1.1//EN" "http://www.w3.org/Graphics/SVG/1.1/DTD/svg11.dtd">
<svg width="100%" height="100%" viewBox="0 0 556 136" version="1.1" xmlns="http://www.w3.org/2000/svg" xmlns:xlink="http://www.w3.org/1999/xlink" xml:space="preserve" xmlns:serif="http://www.serif.com/" style="fill-rule:evenodd;clip-rule:evenodd;stroke-linejoin:round;stroke-miterlimit:2;">
    <g transform="matrix(1,0,0,1,-241.802,-316.498)">
        <g transform="matrix(1,0,0,1,-23.8087,185.338)">
            <g transform="matrix(1.5154,0,0,1.5154,0.187186,-81.8166)">
                <g transform="matrix(68.0054,0,0,68.0054,290.711,203.276)">
                    <path d="M0.23,-0.53L0.23,-0.47L0.155,-0.46L0.24,-0.09L0.371,-0.525L0.466,-0.54L0.59,-0.09L0.67,-0.455L0.6,-0.47L0.6,-0.525L0.825,-0.53L0.825,-0.47L0.767,-0.46L0.645,0L0.53,0L0.435,-0.31L0.411,-0.406L0.39,-0.31L0.295,0L0.18,0L0.055,-0.455L0.005,-0.47L0.005,-0.525L0.23,-0.53Z" style="fill:rgb(5,32,74);fill-rule:nonzero;"/>
                </g>
                <g transform="matrix(68.0054,0,0,68.0054,347.155,203.276)">
                    <path d="M0.17,-0.765C0.213,-0.765 0.235,-0.74 0.235,-0.69C0.235,-0.669 0.228,-0.653 0.213,-0.642C0.198,-0.631 0.183,-0.625 0.166,-0.625C0.148,-0.625 0.133,-0.631 0.122,-0.644C0.111,-0.656 0.105,-0.673 0.105,-0.695C0.105,-0.717 0.111,-0.734 0.124,-0.747C0.136,-0.759 0.151,-0.765 0.17,-0.765ZM0.225,-0.53L0.225,-0.08L0.3,-0.055L0.3,0L0.04,0L0.04,-0.055L0.125,-0.08L0.125,-0.45L0.04,-0.47L0.04,-0.525L0.225,-0.53Z" style="fill:rgb(5,32,74);fill-rule:nonzero;"/>
                </g>
                <g transform="matrix(68.0054,0,0,68.0054,369.937,203.276)">
                    <path d="M0.205,-0.53L0.214,-0.457C0.263,-0.512 0.314,-0.54 0.365,-0.54C0.392,-0.54 0.419,-0.536 0.444,-0.528L0.455,-0.525L0.45,-0.38L0.385,-0.38L0.37,-0.455C0.313,-0.455 0.264,-0.429 0.225,-0.377L0.225,-0.08L0.325,-0.055L0.325,0L0.04,0L0.04,-0.055L0.125,-0.08L0.125,-0.45L0.04,-0.47L0.04,-0.525L0.205,-0.53Z" style="fill:rgb(5,32,74);fill-rule:nonzero;"/>
                </g>
                <g transform="matrix(68.0054,0,0,68.0054,401.559,203.276)">
                    <path d="M0.49,-0.252L0.145,-0.25C0.145,-0.195 0.158,-0.152 0.185,-0.119C0.211,-0.086 0.246,-0.07 0.29,-0.07C0.305,-0.07 0.319,-0.071 0.334,-0.074C0.349,-0.077 0.363,-0.08 0.376,-0.084C0.389,-0.088 0.4,-0.092 0.411,-0.098C0.422,-0.102 0.431,-0.107 0.438,-0.112L0.458,-0.125L0.493,-0.073C0.47,-0.055 0.45,-0.041 0.431,-0.031C0.412,-0.02 0.389,-0.011 0.364,-0.003C0.338,0.006 0.31,0.01 0.28,0.01C0.201,0.01 0.142,-0.014 0.101,-0.062C0.06,-0.109 0.04,-0.174 0.04,-0.257C0.04,-0.298 0.046,-0.336 0.058,-0.371C0.07,-0.406 0.087,-0.436 0.109,-0.461C0.13,-0.486 0.156,-0.505 0.186,-0.519C0.216,-0.533 0.249,-0.54 0.285,-0.54C0.425,-0.54 0.495,-0.462 0.495,-0.305L0.49,-0.252ZM0.149,-0.325L0.389,-0.325C0.389,-0.366 0.38,-0.399 0.363,-0.424C0.346,-0.449 0.318,-0.462 0.279,-0.462C0.241,-0.462 0.211,-0.449 0.188,-0.424C0.165,-0.398 0.152,-0.365 0.149,-0.325Z" style="fill:rgb(5,32,74);fill-rule:nonzero;"/>
                </g>
                <g transform="matrix(68.0054,0,0,68.0054,437.602,203.276)">
                    <path d="M0.22,-0.671L0.22,-0.525L0.365,-0.525L0.365,-0.45L0.22,-0.45L0.22,-0.129C0.22,-0.088 0.237,-0.068 0.27,-0.068C0.291,-0.068 0.317,-0.076 0.348,-0.093L0.375,-0.04C0.33,-0.007 0.283,0.01 0.235,0.01C0.201,0.01 0.173,-0.001 0.152,-0.024C0.131,-0.046 0.12,-0.083 0.12,-0.135L0.12,-0.45L0.02,-0.45L0.02,-0.515L0.12,-0.525L0.12,-0.651L0.22,-0.671Z" style="fill:rgb(5,32,74);fill-rule:nonzero;"/>
                </g>
                <g transform="matrix(68.0054,0,0,68.0054,464.464,203.276)">
                    <path d="M0.075,-0.5C0.147,-0.527 0.213,-0.54 0.273,-0.54C0.332,-0.54 0.377,-0.528 0.408,-0.505C0.439,-0.481 0.455,-0.441 0.455,-0.385L0.455,-0.08L0.535,-0.06L0.535,-0.005L0.38,0L0.359,-0.07C0.306,-0.017 0.253,0.01 0.201,0.01C0.149,0.01 0.11,-0.003 0.084,-0.029C0.058,-0.055 0.045,-0.092 0.045,-0.14C0.045,-0.243 0.122,-0.295 0.275,-0.295L0.355,-0.295L0.355,-0.375C0.355,-0.435 0.323,-0.465 0.26,-0.465C0.224,-0.465 0.194,-0.461 0.171,-0.454L0.159,-0.45L0.145,-0.375L0.08,-0.375L0.075,-0.5ZM0.355,-0.23L0.285,-0.23C0.235,-0.23 0.2,-0.224 0.179,-0.211C0.158,-0.198 0.147,-0.177 0.147,-0.15C0.147,-0.124 0.153,-0.104 0.166,-0.091C0.178,-0.077 0.196,-0.07 0.219,-0.07C0.23,-0.07 0.242,-0.072 0.254,-0.076C0.265,-0.08 0.277,-0.085 0.288,-0.091C0.299,-0.097 0.308,-0.103 0.317,-0.111C0.326,-0.117 0.333,-0.124 0.338,-0.13L0.355,-0.15L0.355,-0.23Z" style="fill:rgb(5,32,74);fill-rule:nonzero;"/>
                </g>
                <g transform="matrix(68.0054,0,0,68.0054,502.888,203.276)">
                    <path d="M0.195,-0.53L0.203,-0.474C0.25,-0.518 0.3,-0.54 0.355,-0.54C0.426,-0.54 0.479,-0.517 0.516,-0.471C0.552,-0.424 0.57,-0.358 0.57,-0.273C0.57,-0.232 0.565,-0.194 0.554,-0.159C0.543,-0.124 0.526,-0.094 0.503,-0.07C0.48,-0.045 0.452,-0.025 0.419,-0.011C0.385,0.003 0.345,0.01 0.3,0.01C0.272,0.01 0.242,0.005 0.21,-0.004L0.21,0.155L0.315,0.175L0.315,0.23L0.03,0.23L0.03,0.175L0.11,0.155L0.11,-0.45L0.025,-0.47L0.025,-0.525L0.195,-0.53ZM0.21,-0.39L0.21,-0.09C0.231,-0.077 0.266,-0.07 0.315,-0.07C0.415,-0.07 0.465,-0.137 0.465,-0.27C0.465,-0.329 0.454,-0.375 0.433,-0.409C0.412,-0.443 0.379,-0.46 0.335,-0.46C0.31,-0.46 0.286,-0.454 0.264,-0.443C0.241,-0.431 0.223,-0.413 0.21,-0.39Z" style="fill:rgb(5,32,74);fill-rule:nonzero;"/>
                </g>
            </g>
            <g transform="matrix(1,0,0,1.18438,82.5417,-277.053)">
                <g transform="matrix(103.056,0,0,117.834,257.92,443.84)">
                    <path d="M0.212,-0.842L0.212,0.126L0.11,0.126L0.11,-0.839L0.212,-0.842Z" style="fill:rgb(250,137,100);fill-rule:nonzero;"/>
                </g>
                <g transform="matrix(103.056,0,0,103.056,214.827,435.334)">
                    <path d="M0.212,-0.77L0.212,0.116L0.11,0.116L0.11,-0.767L0.212,-0.77Z" style="fill:rgb(250,137,100);fill-rule:nonzero;"/>
                </g>
                <g transform="matrix(103.056,0,0,103.056,193.28,457.834)">
                    <path d="M0.212,-0.77L0.212,-0.32L0.11,-0.32L0.11,-0.767L0.212,-0.77Z" style="fill:rgb(250,137,100);fill-rule:nonzero;"/>
                </g>
                <g transform="matrix(103.056,0,0,103.056,171.733,474.834)">
                    <path d="M0.212,-0.77L0.212,-0.65L0.11,-0.65L0.11,-0.767L0.212,-0.77Z" style="fill:rgb(250,137,100);fill-rule:nonzero;"/>
                </g>
                <g transform="matrix(103.056,0,0,103.056,279.467,458.834)">
                    <path d="M0.212,-0.77L0.212,-0.34L0.11,-0.34L0.11,-0.767L0.212,-0.77Z" style="fill:rgb(250,137,100);fill-rule:nonzero;"/>
                </g>
                <g transform="matrix(103.056,0,0,103.056,301.014,474.834)">
                    <path d="M0.212,-0.786L0.212,-0.634L0.11,-0.634L0.11,-0.784L0.212,-0.786Z" style="fill:rgb(250,137,100);fill-rule:nonzero;"/>
                </g>
                <g transform="matrix(103.056,0,0,103.056,236.373,448.834)">
                    <path d="M0.212,-0.77L0.212,-0.146L0.11,-0.146L0.11,-0.767L0.212,-0.77Z" style="fill:rgb(250,137,100);fill-rule:nonzero;"/>
                </g>
            </g>
        </g>
    </g>
</svg>
