<?xml version="1.0" encoding="UTF-8" standalone="no"?>
<!DOCTYPE svg PUBLIC "-//W3C//DTD SVG 1.1//EN" "http://www.w3.org/Graphics/SVG/1.1/DTD/svg11.dtd">
<svg width="100%" height="100%" viewBox="0 0 629 132" version="1.1" xmlns="http://www.w3.org/2000/svg" xmlns:xlink="http://www.w3.org/1999/xlink" xml:space="preserve" xmlns:serif="http://www.serif.com/" style="fill-rule:evenodd;clip-rule:evenodd;stroke-linejoin:round;stroke-miterlimit:2;">
    <g transform="matrix(1,0,0,1,-191.267,-302.872)">
        <g transform="matrix(1.5626,0,0,1.5626,-198.354,69.4104)">
            <g transform="matrix(0.63996,0,0,0.63996,118.946,-63.2845)">
                <path d="M806.93,425.958C804.304,425.958 801.829,425.658 799.504,425.058C797.179,424.458 795.266,423.745 793.766,422.92L793.766,444.747C793.391,444.897 792.829,445.065 792.079,445.253C791.329,445.44 790.504,445.534 789.604,445.534C786.378,445.534 784.766,444.147 784.766,441.371L784.766,381.968C784.766,380.468 785.028,379.268 785.553,378.368C786.078,377.467 787.166,376.53 788.816,375.555C790.841,374.43 793.26,373.398 796.073,372.461C798.885,371.523 802.092,371.055 805.692,371.055C809.367,371.055 812.836,371.58 816.099,372.63C819.362,373.68 822.174,375.311 824.537,377.524C826.9,379.736 828.775,382.568 830.162,386.018C831.55,389.468 832.244,393.593 832.244,398.394C832.244,403.044 831.625,407.094 830.387,410.545C829.15,413.995 827.406,416.864 825.156,419.151C822.906,421.439 820.224,423.145 817.112,424.27C813.999,425.395 810.605,425.958 806.93,425.958ZM747.076,371.055C753.601,371.055 758.777,372.517 762.602,375.442C766.427,378.368 768.34,382.98 768.34,389.281L768.34,415.945C768.34,417.595 768.021,418.851 767.383,419.714C766.746,420.576 765.79,421.383 764.514,422.133C762.714,423.183 760.333,424.102 757.37,424.889C754.408,425.677 751.014,426.071 747.188,426.071C740.138,426.071 734.681,424.683 730.819,421.908C726.956,419.133 725.024,415.12 725.024,409.869C725.024,404.919 726.637,401.188 729.862,398.675C733.087,396.162 737.625,394.606 743.476,394.006L759.452,392.431L759.452,389.281C759.452,385.53 758.327,382.793 756.076,381.068C753.826,379.343 750.789,378.48 746.963,378.48C743.813,378.48 740.85,378.93 738.075,379.83C735.3,380.73 732.825,381.743 730.65,382.868C730.05,382.343 729.506,381.743 729.018,381.068C728.531,380.393 728.287,379.643 728.287,378.818C728.287,377.767 728.55,376.905 729.075,376.23C729.6,375.555 730.425,374.917 731.55,374.317C733.575,373.267 735.9,372.461 738.525,371.898C741.15,371.336 744.001,371.055 747.076,371.055ZM703.873,425.958C698.623,425.958 694.366,424.795 691.104,422.47C687.841,420.145 686.21,416.282 686.21,410.882L686.21,357.441C686.585,357.291 687.166,357.122 687.953,356.935C688.741,356.747 689.585,356.654 690.485,356.654C693.635,356.654 695.21,358.004 695.21,360.704L695.21,373.642L713.661,373.642C713.886,374.017 714.111,374.524 714.336,375.161C714.561,375.799 714.674,376.492 714.674,377.242C714.674,379.793 713.549,381.068 711.299,381.068L695.21,381.068L695.21,410.32C695.21,413.32 696.054,415.439 697.742,416.676C699.429,417.914 701.811,418.533 704.886,418.533C706.161,418.533 707.586,418.308 709.161,417.857C710.736,417.407 712.049,416.882 713.099,416.282C713.549,416.732 713.961,417.295 714.336,417.97C714.711,418.645 714.899,419.433 714.899,420.333C714.899,421.983 713.924,423.333 711.974,424.383C710.024,425.433 707.323,425.958 703.873,425.958ZM634.119,403.794C636.144,413.62 642.594,418.533 653.47,418.533C656.62,418.533 659.47,418.008 662.021,416.957C664.571,415.907 666.596,414.782 668.096,413.582C669.896,414.632 670.796,416.057 670.796,417.857C670.796,418.908 670.327,419.92 669.39,420.895C668.452,421.87 667.177,422.733 665.564,423.483C663.952,424.233 662.077,424.833 659.939,425.283C657.801,425.733 655.495,425.958 653.02,425.958C644.319,425.958 637.438,423.595 632.375,418.87C627.312,414.145 624.781,407.244 624.781,398.169C624.781,393.893 625.399,390.087 626.637,386.749C627.875,383.412 629.6,380.58 631.812,378.255C634.025,375.93 636.669,374.148 639.744,372.911C642.819,371.673 646.157,371.055 649.757,371.055C653.132,371.055 656.245,371.617 659.095,372.742C661.946,373.867 664.402,375.461 666.465,377.524C668.527,379.586 670.14,382.024 671.302,384.837C672.465,387.649 673.046,390.743 673.046,394.119C673.046,395.769 672.671,396.95 671.921,397.662C671.171,398.375 670.121,398.806 668.771,398.956L634.119,403.794ZM509.461,385.793C508.411,389.318 507.342,392.881 506.254,396.481C505.167,400.081 504.061,403.532 502.936,406.832C501.81,410.132 500.723,413.245 499.673,416.17C498.623,419.095 497.648,421.683 496.748,423.933C496.148,424.308 495.473,424.608 494.722,424.833C493.972,425.058 492.96,425.17 491.685,425.17C490.485,425.17 489.378,424.964 488.366,424.552C487.353,424.139 486.659,423.483 486.284,422.583C485.384,420.708 484.316,417.782 483.078,413.807C481.84,409.832 480.565,405.463 479.253,400.7C477.94,395.937 476.703,391.137 475.54,386.299C474.377,381.461 473.421,377.242 472.671,373.642C473.196,373.117 473.852,372.63 474.64,372.18C475.428,371.73 476.384,371.505 477.509,371.505C478.934,371.505 479.984,371.898 480.659,372.686C481.334,373.473 481.859,374.73 482.234,376.455C482.909,379.605 483.697,383.187 484.597,387.199C485.497,391.212 486.397,395.131 487.297,398.956C488.197,402.782 489.041,406.269 489.828,409.419C490.616,412.57 491.197,414.895 491.572,416.395L492.022,416.395C492.472,415.045 493.129,413.02 493.991,410.32C494.854,407.619 495.848,404.525 496.973,401.038C498.098,397.55 499.335,393.781 500.685,389.731C502.035,385.68 503.386,381.63 504.736,377.58C506.086,376.83 507.698,376.455 509.573,376.455C512.349,376.455 514.074,377.43 514.749,379.38C516.099,383.28 517.393,387.162 518.63,391.025C519.868,394.887 521.012,398.469 522.062,401.769C523.112,405.069 524.012,408.013 524.762,410.601C525.512,413.188 526.112,415.157 526.562,416.507L527.125,416.507C528.85,409.757 530.725,402.594 532.75,395.019C534.775,387.443 536.425,379.943 537.7,372.517C538.75,371.842 540.025,371.505 541.525,371.505C542.801,371.505 543.813,371.805 544.563,372.405C545.313,373.005 545.688,373.942 545.688,375.217C545.688,376.042 545.444,377.636 544.957,379.999C544.469,382.362 543.813,385.099 542.988,388.212C542.163,391.325 541.244,394.662 540.232,398.225C539.219,401.788 538.188,405.238 537.138,408.576C536.088,411.913 535.094,414.951 534.156,417.689C533.219,420.426 532.412,422.508 531.737,423.933C531.362,424.233 530.744,424.514 529.881,424.777C529.018,425.039 528.025,425.17 526.9,425.17C525.474,425.17 524.293,425.002 523.356,424.664C522.418,424.327 521.799,423.783 521.499,423.033C520.674,421.008 519.793,418.608 518.855,415.832C517.918,413.057 516.924,410.038 515.874,406.776C514.824,403.513 513.755,400.081 512.667,396.481C511.58,392.881 510.511,389.318 509.461,385.793ZM568.302,424.27C567.927,424.42 567.365,424.589 566.615,424.777C565.864,424.964 565.039,425.058 564.139,425.058C560.914,425.058 559.302,423.708 559.302,421.008L559.302,372.742C559.677,372.592 560.258,372.423 561.045,372.236C561.833,372.048 562.677,371.955 563.577,371.955C566.727,371.955 568.302,373.342 568.302,376.117L568.302,424.27ZM594.854,424.27C594.479,424.42 593.916,424.589 593.166,424.777C592.416,424.964 591.591,425.058 590.691,425.058C587.466,425.058 585.853,423.708 585.853,421.008L585.853,382.868C585.853,381.143 586.172,379.774 586.81,378.761C587.447,377.749 588.516,376.755 590.016,375.78C591.966,374.505 594.61,373.398 597.948,372.461C601.285,371.523 605.054,371.055 609.255,371.055C615.255,371.055 618.255,372.555 618.255,375.555C618.255,376.305 618.143,376.999 617.918,377.636C617.693,378.274 617.393,378.818 617.018,379.268C616.268,379.118 615.293,378.968 614.092,378.818C612.892,378.668 611.692,378.593 610.492,378.593C607.042,378.593 604.004,378.949 601.379,379.661C598.754,380.374 596.579,381.218 594.854,382.193L594.854,424.27ZM747.188,418.645C750.339,418.645 752.945,418.326 755.008,417.689C757.07,417.051 758.552,416.432 759.452,415.832L759.452,399.519L745.501,400.981C741.601,401.356 738.713,402.238 736.838,403.625C734.963,405.013 734.025,407.057 734.025,409.757C734.025,412.607 735.113,414.801 737.288,416.339C739.463,417.876 742.763,418.645 747.188,418.645ZM805.692,418.533C810.942,418.533 815.161,416.939 818.349,413.751C821.537,410.563 823.131,405.444 823.131,398.394C823.131,394.719 822.662,391.606 821.724,389.056C820.787,386.506 819.512,384.443 817.899,382.868C816.286,381.293 814.43,380.168 812.33,379.493C810.23,378.818 808.017,378.48 805.692,378.48C802.992,378.48 800.704,378.818 798.829,379.493C796.954,380.168 795.266,380.918 793.766,381.743L793.766,414.932C795.191,415.982 796.879,416.845 798.829,417.52C800.779,418.195 803.067,418.533 805.692,418.533ZM649.645,378.368C645.069,378.368 641.282,379.961 638.282,383.149C635.281,386.337 633.706,390.893 633.556,396.819L664.496,392.543C664.121,388.418 662.677,385.024 660.164,382.362C657.651,379.699 654.145,378.368 649.645,378.368ZM557.951,356.091C557.951,354.516 558.495,353.185 559.583,352.097C560.67,351.01 562.077,350.466 563.802,350.466C565.527,350.466 566.915,351.01 567.965,352.097C569.015,353.185 569.54,354.516 569.54,356.091C569.54,357.666 569.015,358.998 567.965,360.085C566.915,361.173 565.527,361.716 563.802,361.716C562.077,361.716 560.67,361.173 559.583,360.085C558.495,358.998 557.951,357.666 557.951,356.091Z" style="fill:rgb(5,32,74);fill-rule:nonzero;"/>
            </g>
            <g transform="matrix(1,0,0,1,-54.895,-194.006)">
                <path d="M374.259,427.439C372.71,427.439 371.458,426.184 371.458,424.638L371.458,346.212C371.458,344.666 372.71,343.412 374.259,343.412C375.808,343.412 377.06,344.666 377.06,346.212L377.06,424.638C377.06,426.184 375.808,427.439 374.259,427.439ZM419.074,421.837C417.525,421.837 416.273,420.582 416.273,419.036L416.273,351.814C416.273,350.268 417.525,349.013 419.074,349.013C420.623,349.013 421.875,350.268 421.875,351.814L421.875,419.036C421.875,420.582 420.623,421.837 419.074,421.837ZM351.852,419.036C350.303,419.036 349.051,417.781 349.051,416.235L349.051,354.615C349.051,353.069 350.303,351.814 351.852,351.814C353.401,351.814 354.653,353.069 354.653,354.615L354.653,416.235C354.653,417.781 353.401,419.036 351.852,419.036ZM396.667,413.434C395.118,413.434 393.866,412.179 393.866,410.633L393.866,360.217C393.866,358.671 395.118,357.416 396.667,357.416C398.215,357.416 399.467,358.671 399.467,360.217L399.467,410.633C399.467,412.179 398.215,413.434 396.667,413.434ZM329.445,413.434C327.896,413.434 326.644,412.179 326.644,410.633L326.644,360.217C326.644,358.671 327.896,357.416 329.445,357.416C330.994,357.416 332.246,358.671 332.246,360.217L332.246,410.633C332.246,412.179 330.994,413.434 329.445,413.434ZM340.649,407.832C339.1,407.832 337.848,406.577 337.848,405.031L337.848,365.819C337.848,364.273 339.1,363.018 340.649,363.018C342.197,363.018 343.449,364.273 343.449,365.819L343.449,405.031C343.449,406.577 342.197,407.832 340.649,407.832ZM385.463,405.031C383.914,405.031 382.662,403.777 382.662,402.23L382.662,368.62C382.662,367.074 383.914,365.819 385.463,365.819C387.012,365.819 388.264,367.074 388.264,368.62L388.264,402.23C388.264,403.777 387.012,405.031 385.463,405.031ZM407.87,399.43C406.321,399.43 405.069,398.175 405.069,396.629L405.069,374.221C405.069,372.675 406.321,371.421 407.87,371.421C409.419,371.421 410.671,372.675 410.671,374.221L410.671,396.629C410.671,398.175 409.419,399.43 407.87,399.43ZM363.056,399.43C361.507,399.43 360.255,398.175 360.255,396.629L360.255,374.221C360.255,372.675 361.507,371.421 363.056,371.421C364.605,371.421 365.857,372.675 365.857,374.221L365.857,396.629C365.857,398.175 364.605,399.43 363.056,399.43ZM430.277,396.629C428.728,396.629 427.476,395.374 427.476,393.828L427.476,377.022C427.476,375.476 428.728,374.221 430.277,374.221C431.826,374.221 433.078,375.476 433.078,377.022L433.078,393.828C433.078,395.374 431.826,396.629 430.277,396.629ZM318.241,393.828C316.692,393.828 315.44,392.573 315.44,391.027L315.44,379.823C315.44,378.277 316.692,377.022 318.241,377.022C319.79,377.022 321.042,378.277 321.042,379.823L321.042,391.027C321.042,392.573 319.79,393.828 318.241,393.828ZM441.481,391.027C439.932,391.027 438.68,389.772 438.68,388.226L438.68,382.624C438.68,381.078 439.932,379.823 441.481,379.823C443.03,379.823 444.282,381.078 444.282,382.624L444.282,388.226C444.282,389.772 443.03,391.027 441.481,391.027ZM307.038,391.027C305.489,391.027 304.237,389.772 304.237,388.226L304.237,382.624C304.237,381.078 305.489,379.823 307.038,379.823C308.587,379.823 309.839,381.078 309.839,382.624L309.839,388.226C309.839,389.772 308.587,391.027 307.038,391.027Z" style="fill:rgb(250,137,100);fill-rule:nonzero;"/>
            </g>
        </g>
    </g>
</svg>
